<svg xmlns="http://www.w3.org/2000/svg" height="512" width="512" fill="#FFBC5E">
<path d="M473 96H328V72a8 8 0 0 0-8-8h-6.059l4.284-4.285a8 8 0 0 0 0-11.314l-22.627-22.627a7.999 7.999 0 0 0-11.313 0L280 30.059V24a8 8 0 0 0-8-8h-32a8 8 0 0 0-8 8v6.059l-4.284-4.284a7.999 7.999 0 0 0-11.313 0l-22.627 22.627a7.999 7.999 0 0 0 0 11.313L198.059 64H192a8 8 0 0 0-8 8v24H39c-12.682 0-23 10.318-23 23v274c0 12.682 10.318 23 23 23h187.848l-9.6 32H208c-22.056 0-40 17.944-40 40a8 8 0 0 0 8 8h160a8 8 0 0 0 8-8c0-22.056-17.944-40-40-40h-9.248l-9.6-32H473c12.682 0 23-10.318 23-23V119c0-12.682-10.318-23-23-23zM200 80h10.742a8 8 0 0 0 7.543-5.334 39.813 39.813 0 0 1 1.611-3.905 8 8 0 0 0-1.56-9.11l-7.592-7.592 11.314-11.313 7.592 7.592a7.999 7.999 0 0 0 9.11 1.56 39.813 39.813 0 0 1 3.905-1.611 8 8 0 0 0 5.334-7.543V32h16v10.742a8 8 0 0 0 5.334 7.543 39.813 39.813 0 0 1 3.905 1.611 8.002 8.002 0 0 0 9.11-1.56l7.592-7.592 11.313 11.313-7.592 7.592a8 8 0 0 0-1.56 9.11 39.813 39.813 0 0 1 1.611 3.905 8 8 0 0 0 7.543 5.334H312v16h-10.742a8 8 0 0 0-7.543 5.334 39.813 39.813 0 0 1-1.611 3.905 8 8 0 0 0 1.56 9.11l7.592 7.592-11.313 11.313-7.592-7.592a8 8 0 0 0-9.11-1.56 39.813 39.813 0 0 1-3.905 1.611 8 8 0 0 0-5.334 7.543V144h-16v-10.742a8 8 0 0 0-5.334-7.543 39.813 39.813 0 0 1-3.905-1.611 8 8 0 0 0-9.11 1.56l-7.592 7.592-11.314-11.314 7.592-7.592a8 8 0 0 0 1.56-9.11 39.813 39.813 0 0 1-1.611-3.905 8 8 0 0 0-7.543-5.334H200zm104 384c10.43 0 19.327 6.688 22.629 16H185.371c3.302-9.312 12.199-16 22.629-16zm-70.048-16 9.6-32h24.895l9.6 32zM480 393c0 3.86-3.14 7-7 7H39c-3.86 0-7-3.14-7-7v-25h448zm0-41H32V119c0-3.86 3.14-7 7-7h159.059l-4.284 4.284a7.998 7.998 0 0 0 0 11.313l22.627 22.627a8 8 0 0 0 11.313 0l4.284-4.284V152a8 8 0 0 0 8 8h32a8 8 0 0 0 8-8v-6.059l4.285 4.284a7.999 7.999 0 0 0 11.313 0l22.627-22.627a8 8 0 0 0 0-11.314L313.941 112H473c3.86 0 7 3.14 7 7z"/>
<path d="m172.422 303.155 80 40a8 8 0 0 0 7.785-.35l79.372-39.65A8 8 0 0 0 344 296v-80a8 8 0 0 0-3.794-6.805l-80.628-40.35a8 8 0 0 0-7.155 0l-80.628 40.35A8 8 0 0 0 168 216v80a8 8 0 0 0 4.422 7.155zM328 291.056l-64 32v-63.062l64-31.049zm-72-106.112L318.112 216l-60.843 31.691L193.888 216zm-72 44 64 32v62.111l-64-32zM112 128H48a8 8 0 0 0-8 8v192a8 8 0 0 0 8 8h64a8 8 0 0 0 8-8V136a8 8 0 0 0-8-8zM72 320H56v-16h16zm0-32H56v-16h16zm0-32H56v-16h16zm0-32H56v-16h16zm0-32H56v-16h16zm0-32H56v-16h16zm32 160H88v-16h16zm0-32H88v-16h16zm0-32H88v-16h16zm0-32H88v-16h16zm0-32H88v-16h16zm0-32H88v-16h16zM384 224h80a8 8 0 0 0 8-8v-80a8 8 0 0 0-8-8h-80a8 8 0 0 0-8 8v80a8 8 0 0 0 8 8zm8-16v-40h64v40zm64-64v8h-64v-8zM384 336h80a8 8 0 0 0 8-8v-80a8 8 0 0 0-8-8h-80a8 8 0 0 0-8 8v80a8 8 0 0 0 8 8zm8-16v-40h64v40zm64-64v8h-64v-8zM256 120c17.645 0 32-14.355 32-32s-14.355-32-32-32-32 14.355-32 32 14.355 32 32 32zm0-48c8.822 0 16 7.178 16 16s-7.178 16-16 16-16-7.178-16-16 7.178-16 16-16zM74.343 85.657C75.905 87.219 77.953 88 80 88s4.095-.781 5.657-2.343l16-16a7.998 7.998 0 0 0 0-11.313 8 8 0 0 0-11.313 0L88 60.687V48h80a8 8 0 0 0 0-16H80a8 8 0 0 0-8 8v20.687l-2.343-2.343a8 8 0 0 0-11.313 0 7.998 7.998 0 0 0 0 11.313zM344 48h80v12.687l-2.343-2.343a8 8 0 0 0-11.313 0 7.998 7.998 0 0 0 0 11.313l16 16C427.905 87.219 429.953 88 432 88s4.095-.781 5.657-2.343l16-16a7.998 7.998 0 0 0 0-11.313 8 8 0 0 0-11.313 0L440 60.687V40a8 8 0 0 0-8-8h-88a8 8 0 0 0 0 16z"/>
</svg>
