<svg fill="#FFBC5E" xmlns="http://www.w3.org/2000/svg" width="800" height="800" viewBox="0 0 468.436 468.436">
<path d="M49.477 303.516v-29.877h100.195v29.877H49.477zm91.41-242.568c5.327 0 9.674-4.339 9.674-9.672 0-5.335-4.342-9.667-9.674-9.667-5.334 0-9.666 4.332-9.666 9.667 0 5.332 4.336 9.672 9.666 9.672zm62.728 0c5.331 0 9.667-4.339 9.667-9.672 0-5.335-4.33-9.667-9.667-9.667-5.335 0-9.666 4.332-9.666 9.667 0 5.332 4.337 9.672 9.666 9.672zm-53.943 164.02v-29.882H49.477v29.882h100.195zm0 127.888H10.379V0H261.73v169.667H149.672v9.592H33.667v61.519h116.005v17.037H33.667v61.52h116.005v33.521zm28.455-301.575c0 14.058 11.433 25.488 25.487 25.488 14.053 0 25.488-11.431 25.488-25.488 0-14.055-11.435-25.483-25.488-25.483-14.054 0-25.487 11.429-25.487 25.483zm-62.72 0c0 14.058 11.425 25.488 25.479 25.488 14.063 0 25.489-11.431 25.489-25.488 0-14.055-11.426-25.483-25.489-25.483-14.054 0-25.479 11.429-25.479 25.483zM33.667 161.14h207.412V99.62H33.667v61.52zm15.81-45.702H225.26v29.882H49.477v-29.882zm139.749 18.017h24.055v-8.345h-24.055v8.345zm158.568 236.279v13.36c36.892 1.221 63.519 4.63 63.519 8.664 0 5.049-41.662 9.137-93.046 9.137-51.394 0-93.04-4.088-93.04-9.137 0-3.624 21.482-6.737 52.585-8.213v-13.812H167.535V184.169h290.521v185.552H347.794v.013zm91.174-15.903V198.492H186.609v155.339h252.359zM326.07 157.772a2.348 2.348 0 0 0 2.856.016 2.339 2.339 0 0 0 .767-2.745L318.07 125.61h20.279c4.412.219 18.911 1.718 28.752 11.374 6.915 6.786 10.273 16.345 10.273 29.24h28.225c0-20.577-6.303-37.196-18.733-49.385-20.216-19.828-49.151-19.51-50.421-19.485l.013.246c-1.988-.17-3.427-.246-3.427-.246l-14.961-.047 11.623-29.434a2.356 2.356 0 0 0-3.627-2.734l-57.812 44.45a2.368 2.368 0 0 0 0 3.743l57.816 44.44zM151.292 375.313a2.363 2.363 0 0 0-2.859-.017 2.354 2.354 0 0 0-.766 2.748l11.621 29.435h-20.28c-4.408-.22-18.906-1.718-28.744-11.373-6.915-6.784-10.276-16.351-10.276-29.242H71.762c0 20.575 6.304 37.199 18.74 49.38 20.211 19.83 49.146 19.513 50.413 19.493l-.004-.248c1.982.169 3.422.248 3.422.248l14.96.042-11.62 29.439a2.345 2.345 0 0 0 2.183 3.217 2.31 2.31 0 0 0 1.441-.486l57.815-44.449c.577-.443.92-1.139.92-1.872 0-.732-.343-1.42-.92-1.871l-57.82-44.444z"/>
</svg>
