<svg width="40" height="32" fill="#FFBC5E" xmlns="http://www.w3.org/2000/svg">
<path opacity=".15" fill-rule="evenodd" clip-rule="evenodd" d="M3 1a2 2 0 0 0-2 2v25a2 2 0 0 0 2 2h34a2 2 0 0 0 2-2V3a2 2 0 0 0-2-2H3Zm33 8H4v19h32V9Z"/>
<path d="M37.617.375H2.383A2.386 2.386 0 0 0 0 2.758v26.484a2.386 2.386 0 0 0 2.383 2.383h35.234A2.386 2.386 0 0 0 40 29.242V2.758A2.386 2.386 0 0 0 37.617.375Zm.82 28.867c0 .453-.367.82-.82.82H2.383a.821.821 0 0 1-.82-.82V2.758c0-.452.368-.82.82-.82h35.234c.453 0 .82.368.82.82v26.484Z"/>
<path d="M14.922 5.792h20.156a.781.781 0 1 0 0-1.563H14.922a.781.781 0 0 0 0 1.563ZM3.992 5.31a.786.786 0 0 0 .17.252.783.783 0 0 0 1.273-.253.814.814 0 0 0 .06-.299.771.771 0 0 0-.348-.65.786.786 0 0 0-.732-.07.762.762 0 0 0-.351.287.772.772 0 0 0-.116.281.75.75 0 0 0 .044.451ZM7.117 5.31a.786.786 0 0 0 .17.252.783.783 0 0 0 1.273-.253.814.814 0 0 0 .06-.299.771.771 0 0 0-.348-.65.786.786 0 0 0-.732-.07.762.762 0 0 0-.351.287.772.772 0 0 0-.116.281.75.75 0 0 0 .044.451ZM10.242 5.31a.783.783 0 0 0 1.156.35.762.762 0 0 0 .287-.35.81.81 0 0 0 .06-.3.774.774 0 0 0-.482-.72.784.784 0 0 0-.852.168.731.731 0 0 0-.169.254.772.772 0 0 0 0 .597ZM22.715 13.739a.781.781 0 0 0-1.07.275l-4.635 7.838a.78.78 0 1 0 1.345.796l4.635-7.839a.781.781 0 0 0-.275-1.07ZM12.977 16.035v-.789c0-.437.355-.792.792-.792h.01a.781.781 0 0 0 0-1.563h-.01a2.357 2.357 0 0 0-2.355 2.355v.79c0 .283-.116.56-.32.759l-1.012.99a.781.781 0 0 0-.006 1.111l1.032 1.032c.199.198.31.463.312.744l.005.819a2.361 2.361 0 0 0 2.355 2.338.781.781 0 0 0 0-1.562.794.794 0 0 1-.792-.787l-.006-.819a2.61 2.61 0 0 0-.77-1.838l-.472-.473.447-.438c.502-.491.79-1.175.79-1.877ZM27.023 20.686v.788a.793.793 0 0 1-.792.793h-.01a.781.781 0 1 0 0 1.562h.01a2.357 2.357 0 0 0 2.354-2.355v-.788c0-.284.117-.561.32-.76l1.013-.99a.78.78 0 0 0 .005-1.112l-1.031-1.03a1.056 1.056 0 0 1-.312-.745l-.005-.819a2.36 2.36 0 0 0-2.355-2.338.781.781 0 1 0 0 1.562c.434 0 .79.353.792.787l.006.819a2.61 2.61 0 0 0 .77 1.838l.472.473-.448.438a2.641 2.641 0 0 0-.789 1.877Z"/>
<path d="M36.044 8.135H3.956a.781.781 0 0 0-.782.782v18.75c0 .431.35.78.782.78h9.3a.781.781 0 1 0 0-1.562h-8.52V9.698h30.527v17.187H19.531a.781.781 0 0 0 0 1.563h16.513c.432 0 .782-.35.782-.781V8.917a.781.781 0 0 0-.782-.782Z"/>
</svg>
