<svg fill="#FFBC5E" version="1.1" xmlns="http://www.w3.org/2000/svg" width="800px" height="800px" viewBox="0 0 468.436 468.436" xml:space="preserve">
<path d="M49.477,303.516v-29.877h100.195v29.877H49.477z M140.887,60.948c5.327,0,9.674-4.339,9.674-9.672
	c0-5.335-4.342-9.667-9.674-9.667c-5.334,0-9.666,4.332-9.666,9.667C131.221,56.608,135.557,60.948,140.887,60.948z
	 M203.615,60.948c5.331,0,9.667-4.339,9.667-9.672c0-5.335-4.33-9.667-9.667-9.667c-5.335,0-9.666,4.332-9.666,9.667
	C193.949,56.608,198.286,60.948,203.615,60.948z M149.672,224.968v-29.882H49.477v29.882H149.672z M149.672,352.856H10.379V0
	H261.73v169.667H149.672v9.592H33.667v61.519h116.005v17.037H33.667v61.52h116.005V352.856z M178.127,51.281
	c0,14.058,11.433,25.488,25.487,25.488c14.053,0,25.488-11.431,25.488-25.488c0-14.055-11.435-25.483-25.488-25.483
	C189.56,25.798,178.127,37.227,178.127,51.281z M115.407,51.281c0,14.058,11.425,25.488,25.479,25.488
	c14.063,0,25.489-11.431,25.489-25.488c0-14.055-11.426-25.483-25.489-25.483C126.832,25.798,115.407,37.227,115.407,51.281z
	 M33.667,161.14h207.412v-61.52H33.667V161.14z M49.477,115.438H225.26v29.882H49.477V115.438z M189.226,133.455h24.055v-8.345
	h-24.055V133.455z M347.794,369.734v13.36c36.892,1.221,63.519,4.63,63.519,8.664c0,5.049-41.662,9.137-93.046,9.137
	c-51.394,0-93.04-4.088-93.04-9.137c0-3.624,21.482-6.737,52.585-8.213v-13.812H167.535V184.169h290.521v185.552H347.794V369.734z
	 M438.968,353.831V198.492H186.609v155.339H438.968z M326.07,157.772c0.845,0.651,2.016,0.656,2.856,0.016
	c0.85-0.637,1.162-1.765,0.767-2.745L318.07,125.61h20.279c4.412,0.219,18.911,1.718,28.752,11.374
	c6.915,6.786,10.273,16.345,10.273,29.24h28.225c0-20.577-6.303-37.196-18.733-49.385c-20.216-19.828-49.151-19.51-50.421-19.485
	l0.013,0.246c-1.988-0.17-3.427-0.246-3.427-0.246l-14.961-0.047l11.623-29.434c0.388-0.987,0.078-2.112-0.771-2.75
	c-0.42-0.32-0.924-0.474-1.418-0.474c-0.509,0-1.018,0.159-1.438,0.49l-57.812,44.45c-0.58,0.442-0.917,1.138-0.917,1.871
	c0,0.736,0.337,1.417,0.917,1.872L326.07,157.772z M151.292,375.313c-0.843-0.644-2.013-0.657-2.859-0.017
	c-0.845,0.64-1.159,1.768-0.766,2.748l11.621,29.435h-20.28c-4.408-0.22-18.906-1.718-28.744-11.373
	c-6.915-6.784-10.276-16.351-10.276-29.242H71.762c0,20.575,6.304,37.199,18.74,49.38c20.211,19.83,49.146,19.513,50.413,19.493
	l-0.004-0.248c1.982,0.169,3.422,0.248,3.422,0.248l14.96,0.042l-11.62,29.439c-0.395,0.984-0.079,2.111,0.766,2.746
	c0.427,0.317,0.925,0.471,1.417,0.471c0.512,0,1.016-0.153,1.441-0.486l57.815-44.449c0.577-0.443,0.92-1.139,0.92-1.872
	c0-0.732-0.343-1.42-0.92-1.871L151.292,375.313z" />
</svg>