<svg xmlns="http://www.w3.org/2000/svg" height="512" viewBox="0 0 511.642 511.642" width="512" fill="#FFBC5E">
<path d="m250.649 324.978-20-34.64a10 10 0 0 0-12.673-4.16l-16.349 7.163a79.3 79.3 0 0 0-15.674-9.064l-1.97-17.724a10 10 0 0 0-9.938-8.896h-39.999a9.998 9.998 0 0 0-9.938 8.896l-1.97 17.724a79.27 79.27 0 0 0-15.673 9.064l-16.35-7.163a10 10 0 0 0-12.673 4.16l-20 34.64a10 10 0 0 0 2.734 13.055l14.379 10.578a80.498 80.498 0 0 0 .001 18.094l-14.38 10.579a10 10 0 0 0-2.734 13.055l20 34.64a10 10 0 0 0 12.673 4.16l16.348-7.163a79.303 79.303 0 0 0 15.675 9.065l1.97 17.723a10 10 0 0 0 9.938 8.896h39.999a9.998 9.998 0 0 0 9.938-8.896l1.97-17.724a79.32 79.32 0 0 0 15.673-9.064l16.35 7.163a9.996 9.996 0 0 0 12.673-4.16l20-34.64a10 10 0 0 0-2.734-13.055l-14.379-10.578a80.625 80.625 0 0 0 0-18.095l14.379-10.578a10 10 0 0 0 2.734-13.055zm-37.725 21.083a60.614 60.614 0 0 1 0 23.194 10 10 0 0 0 3.888 9.977l12.041 8.858-11.05 19.138-13.704-6.004a10.002 10.002 0 0 0-10.593 1.629c-5.919 5.172-12.666 9.075-20.056 11.599a10 10 0 0 0-6.705 8.358l-1.65 14.849h-22.099l-1.65-14.848a9.999 9.999 0 0 0-6.705-8.358 59.632 59.632 0 0 1-20.056-11.598 10.002 10.002 0 0 0-10.594-1.631l-13.704 6.004-11.049-19.138 12.042-8.859a10.004 10.004 0 0 0 3.889-9.975 60.56 60.56 0 0 1-.002-23.195 10 10 0 0 0-3.888-9.977l-12.041-8.858 11.049-19.138 13.705 6.004a9.997 9.997 0 0 0 10.593-1.629 59.667 59.667 0 0 1 20.055-11.599 9.998 9.998 0 0 0 6.706-8.358l1.65-14.849h22.099l1.65 14.849a9.998 9.998 0 0 0 6.706 8.358 59.628 59.628 0 0 1 20.054 11.598 10 10 0 0 0 10.594 1.63l13.704-6.004 11.05 19.138-12.041 8.858a10 10 0 0 0-3.888 9.977z"/>
<path d="M154.046 322.658c-19.299 0-35 15.701-35 35 1.76 46.368 68.247 46.356 69.999 0 0-19.299-15.7-35-34.999-35zm0 50c-8.271 0-15-6.729-15-15 .754-19.872 29.248-19.867 29.999 0 0 8.271-6.728 15-14.999 15zM466.806 44.899c-57.362-59.784-160.575-59.781-217.936 0-12.93 12.93-23.515 28.235-31.145 44.87l-.048-.108c-2.234-5.05-8.14-7.335-13.19-5.1-5.052 2.234-7.335 8.14-5.101 13.191l10.113 22.863a10.003 10.003 0 0 0 13.191 5.1l22.862-10.114c5.051-2.234 7.334-8.14 5.1-13.19a10 10 0 0 0-13.191-5.1l-1.5.664c6.636-14.433 15.829-27.711 27.051-38.933 49.917-52.025 139.735-52.023 189.65 0 52.025 49.917 52.023 139.735 0 189.65-49.923 52.024-139.73 52.024-189.65-.001-23.488-23.487-53.218-38.499-85.976-43.415-32.096-4.815-64.273.403-93.046 15.092-4.919 2.511-6.871 8.535-4.359 13.454 2.511 4.919 8.535 6.87 13.453 4.36 51.924-26.508 114.532-16.603 155.785 24.653 57.366 59.78 160.573 59.783 217.935-.002 59.782-57.358 59.786-160.578.002-217.934z"/>
<path d="m261.236 186.545 20 34.641a10 10 0 0 0 12.674 4.16l16.347-7.163a79.283 79.283 0 0 0 15.675 9.065l1.97 17.723a10 10 0 0 0 9.938 8.896h39.999a9.998 9.998 0 0 0 9.938-8.896l1.97-17.724a79.32 79.32 0 0 0 15.673-9.064l16.35 7.163a10 10 0 0 0 12.673-4.16l20-34.641a10 10 0 0 0-2.734-13.055l-14.379-10.578a80.625 80.625 0 0 0 0-18.095l14.379-10.578a10 10 0 0 0 2.734-13.055l-20-34.64a10 10 0 0 0-12.673-4.16l-16.349 7.163a79.3 79.3 0 0 0-15.674-9.064l-1.97-17.724a10 10 0 0 0-9.938-8.896H337.84a9.998 9.998 0 0 0-9.938 8.896l-1.97 17.724a79.349 79.349 0 0 0-15.673 9.064l-16.35-7.163a10 10 0 0 0-12.673 4.16l-20 34.64a10 10 0 0 0 2.734 13.055l14.379 10.578a80.498 80.498 0 0 0 .001 18.094l-14.38 10.579a10 10 0 0 0-2.734 13.055zm37.726-21.082a60.56 60.56 0 0 1-.002-23.195 10 10 0 0 0-3.888-9.977l-12.041-8.858 11.049-19.138 13.705 6.004a9.998 9.998 0 0 0 10.593-1.629c5.92-5.173 12.667-9.075 20.055-11.598a10 10 0 0 0 6.706-8.359l1.65-14.849h22.099l1.65 14.849a9.998 9.998 0 0 0 6.706 8.358 59.628 59.628 0 0 1 20.054 11.598 10 10 0 0 0 10.594 1.63l13.704-6.004 11.05 19.138-12.041 8.858a10 10 0 0 0-3.888 9.977 60.614 60.614 0 0 1 0 23.194 10 10 0 0 0 3.888 9.977l12.041 8.858-11.049 19.138-13.705-6.004a10.006 10.006 0 0 0-10.593 1.629c-5.919 5.172-12.666 9.075-20.056 11.599a10 10 0 0 0-6.705 8.358l-1.65 14.849h-22.099l-1.65-14.848a9.998 9.998 0 0 0-6.706-8.358 59.62 59.62 0 0 1-20.055-11.598 10.002 10.002 0 0 0-10.595-1.631l-13.703 6.004-11.049-19.138 12.042-8.859a10 10 0 0 0 3.889-9.975z"/>
<path d="M357.838 188.865c19.299 0 35-15.701 35-35-1.76-46.368-68.247-46.356-69.999 0 0 19.299 15.7 35 34.999 35zm0-50c8.271 0 15 6.729 15 15-.754 19.872-29.248 19.867-29.999 0 0-8.271 6.729-15 14.999-15zM302.384 390.909a10.003 10.003 0 0 0-13.191-5.1l-22.862 10.114c-11.923 5.776-4.194 23.228 8.092 18.29l1.506-.666c-6.635 14.435-15.827 27.706-27.057 38.936-49.916 52.025-139.734 52.023-189.649 0C17.965 411.228 8.059 348.62 34.571 296.692c2.512-4.919.56-10.942-4.359-13.454-4.917-2.511-10.942-.56-13.453 4.359-30.376 57.806-18.589 133.35 28.321 179.028 74.534 75.902 205.666 52.209 249.081-44.866l.046.104a9.998 9.998 0 0 0 13.19 5.1c5.051-2.234 7.335-8.14 5.101-13.191zM52.157 265.758c2.258 0 4.53-.761 6.399-2.319 4.243-3.536 4.816-9.841 1.281-14.084-3.538-4.243-9.844-4.814-14.084-1.28l-.006.005c-4.243 3.536-4.813 9.839-1.278 14.082a9.981 9.981 0 0 0 7.688 3.596z"/>
</svg>
